<svg width="20.799805" height="20.799805" viewBox="0 0 20.7998 20.7998" fill="none" xmlns="http://www.w3.org/2000/svg" xmlns:xlink="http://www.w3.org/1999/xlink">
	<desc>
			Created with Pixso.
	</desc>
	<defs/>
	<path id="Vector" d="M19.26 0L1.53 0C1.12 0 0.73 0.16 0.45 0.44C0.16 0.73 0 1.12 0 1.53L0 19.26C0 19.67 0.16 20.06 0.45 20.35C0.73 20.63 1.12 20.79 1.53 20.79L19.26 20.79C19.67 20.79 20.06 20.63 20.35 20.35C20.63 20.06 20.79 19.67 20.79 19.26L20.79 1.53C20.79 1.12 20.63 0.73 20.35 0.44C20.06 0.16 19.67 0 19.26 0ZM6.19 17.71L3.07 17.71L3.07 7.78L6.19 7.78L6.19 17.71ZM4.63 6.4C4.27 6.4 3.93 6.29 3.63 6.1C3.34 5.9 3.11 5.62 2.98 5.29C2.84 4.96 2.81 4.6 2.88 4.25C2.95 3.9 3.12 3.58 3.37 3.33C3.62 3.08 3.95 2.91 4.29 2.85C4.64 2.78 5 2.81 5.33 2.95C5.66 3.09 5.94 3.32 6.13 3.61C6.33 3.91 6.43 4.26 6.43 4.61C6.44 4.85 6.39 5.08 6.3 5.3C6.21 5.52 6.08 5.72 5.91 5.89C5.74 6.06 5.54 6.19 5.32 6.28C5.1 6.37 4.87 6.41 4.63 6.4ZM17.72 17.72L14.6 17.72L14.6 12.3C14.6 10.7 13.91 10.2 13.04 10.2C12.11 10.2 11.2 10.9 11.2 12.34L11.2 17.72L8.07 17.72L8.07 7.79L11.08 7.79L11.08 9.16L11.12 9.16C11.42 8.55 12.48 7.51 14.09 7.51C15.84 7.51 17.72 8.54 17.72 11.58L17.72 17.72Z" fill="#FFFFFF" fill-opacity="1.000000" fill-rule="nonzero"/>
</svg>
